<svg width="87" height="81" viewBox="0 0 87 81" fill="none" xmlns="http://www.w3.org/2000/svg">
<path d="M51.0662 6.15589C32.038 -4.03089 16.87 1.27072 11.6645 5.19487C11.0879 6.73254 13.8268 8.23807 15.2683 8.79862C26.6083 10.9128 36.1704 22.8134 39.534 28.4995C46.0689 41.9537 52.0272 50.1223 54.1895 52.5249C62.4542 61.5584 73.0094 66.0592 77.2538 67.1804C88.5938 70.8322 87.7449 56.3689 85.903 48.6808C81.0979 25.4242 60.6763 10.6406 51.0662 6.15589Z" fill="#9DCC92"/>
<path d="M35.9876 74.8444C55.0157 85.0311 70.1837 79.7295 75.3892 75.8054C75.9658 74.2677 73.2269 72.7622 71.7854 72.2016C60.4454 70.0874 50.8833 58.1868 47.5198 52.5008C40.9848 39.0466 35.0265 30.8779 32.8643 28.4754C24.5995 19.4418 14.0444 14.9411 9.79987 13.8199C-1.54012 10.168 -0.691218 24.6313 1.15073 32.3194C5.95581 55.576 26.3774 70.3596 35.9876 74.8444Z" fill="#9DCC92"/>
</svg>
